G04 DipTrace 4.3.0.5*
G04 1 - Top.gbr*
%MOMM*%
G04 #@! TF.FileFunction,Copper,L1,Top*
G04 #@! TF.Part,Single*
G04 #@! TA.AperFunction,ComponentPad*
%ADD16R,1.5X1.5*%
%ADD17C,1.5*%
%ADD18C,1.524*%
%ADD19C,1.524*%
%ADD21R,1.8X1.8*%
%ADD22C,1.8*%
G04 #@! TA.AperFunction,ViaPad*
%ADD23C,1.5*%
%FSLAX35Y35*%
G04*
G71*
G90*
G75*
G01*
G04 Top*
%LPD*%
D23*
X2389000Y2076000D3*
Y1377500D3*
D16*
X1246000Y3854000D3*
D17*
Y4108000D3*
D16*
X4294000Y1822000D3*
D17*
Y2076000D3*
Y2330000D3*
Y2584000D3*
Y2838000D3*
Y3092000D3*
D16*
X1373000Y5378000D3*
D17*
Y5124000D3*
D18*
X1245988Y3219000D3*
D19*
X1246012Y1949000D3*
D18*
X3913000Y5886000D3*
D19*
Y4616000D3*
D18*
Y4362000D3*
D19*
Y3092000D3*
D21*
X1881000Y5632000D3*
D22*
Y5378000D3*
Y5124000D3*
Y4870000D3*
Y4616000D3*
X3405000Y2076000D3*
Y2330000D3*
Y2584000D3*
Y4616000D3*
Y4870000D3*
Y5632000D3*
X1881000Y4362000D3*
Y4108000D3*
Y3854000D3*
Y3600000D3*
Y3346000D3*
Y3092000D3*
Y2838000D3*
Y2584000D3*
Y2330000D3*
Y2076000D3*
X3405000Y2838000D3*
Y3092000D3*
Y3346000D3*
Y3600000D3*
Y3854000D3*
Y4108000D3*
Y4362000D3*
Y5124000D3*
Y5378000D3*
M02*
