G04 DipTrace 4.3.0.5*
G04 2 - Bottom.gbr*
%MOMM*%
G04 #@! TF.FileFunction,Copper,L2,Bot*
G04 #@! TF.Part,Single*
G04 #@! TA.AperFunction,Conductor*
%ADD13C,0.33*%
%ADD14C,0.66*%
G04 #@! TA.AperFunction,CopperBalancing*
%ADD15C,0.635*%
G04 #@! TA.AperFunction,ComponentPad*
%ADD16R,1.5X1.5*%
%ADD17C,1.5*%
%ADD18C,1.524*%
%ADD19C,1.524*%
%ADD21R,1.8X1.8*%
%ADD22C,1.8*%
G04 #@! TA.AperFunction,ViaPad*
%ADD23C,1.5*%
%FSLAX35Y35*%
G04*
G71*
G90*
G75*
G01*
G04 Bottom*
%LPD*%
X3913000Y3092000D2*
D13*
Y2711000D1*
X4040000Y2584000D1*
X4294000D1*
X1246010Y1949000D2*
D14*
X1627010Y1568000D1*
X3659000D1*
X3913000Y1822000D1*
Y2444033D1*
X4046483Y2577517D1*
X4040000Y2584000D1*
X1881000Y4870000D2*
D13*
X1627000D1*
X1373000Y5124000D1*
Y5378000D2*
Y5759000D1*
X1754000Y6140000D1*
X3969997D1*
X4230500Y5879497D1*
Y5378000D1*
X4103500Y5251000D1*
X3786000D1*
X3405000Y5632000D1*
X1246000Y3854000D2*
Y3219010D1*
X1245990Y3219000D1*
Y2457010D1*
X1500000Y2203000D1*
Y1949000D1*
X1754000Y1695000D1*
X2643000D1*
X3151000Y2203000D1*
Y2584000D1*
X3405000Y2838000D1*
X1881000Y5378000D2*
X2135000D1*
X2389000Y5124000D1*
Y2076000D1*
Y1377500D2*
X3722500D1*
X4040000Y1695000D1*
Y2203000D1*
X4167000Y2330000D1*
X4294000D1*
X1246000Y4108000D2*
X1373000D1*
X1500000Y3981000D1*
Y2457000D1*
X1627000Y2330000D1*
Y1949000D1*
X1754000Y1822000D1*
X2643000D1*
X3024000Y2203000D1*
Y4489000D1*
X3405000Y4870000D1*
X4294000Y2838000D2*
X4230500D1*
X4103500Y2965000D1*
Y3663500D1*
X3976500Y3790500D1*
X3786000D1*
X3659000Y3917500D1*
Y4616000D1*
X3405000Y4870000D1*
X1881000Y5632000D2*
X2262000D1*
X2516000Y5886000D1*
X3913000D1*
Y4616000D2*
Y4362000D1*
X4294000Y2076000D2*
X4421000Y2203000D1*
Y3854000D1*
X3913000Y4362000D1*
D23*
X2389000Y2076000D3*
Y1377500D3*
X1492460Y6362583D2*
D15*
X4174533D1*
X1523950Y6299417D2*
X4143087D1*
X1538490Y6236250D2*
X1632430D1*
X4091530D2*
X4128503D1*
X1538763Y6173083D2*
X1569267D1*
X1030123Y5983583D2*
X1053653D1*
X1815390D2*
X2395777D1*
X4613340D2*
X4636913D1*
X1030123Y5920417D2*
X1186543D1*
X1752227D2*
X2332610D1*
X4480447D2*
X4636913D1*
X1030123Y5857250D2*
X1253947D1*
X1689060D2*
X2269447D1*
X4386387D2*
X4636913D1*
X1030123Y5794083D2*
X1221317D1*
X1625897D2*
X1651617D1*
X2110383D2*
X2206283D1*
X4386387D2*
X4636913D1*
X1030123Y5730917D2*
X1217123D1*
X1562733D2*
X1651617D1*
X2578737D2*
X3198770D1*
X3611237D2*
X3766200D1*
X4386387D2*
X4636913D1*
X1030123Y5667750D2*
X1217123D1*
X1528873D2*
X1651617D1*
X2515573D2*
X3178537D1*
X3631470D2*
X4074637D1*
X4386387D2*
X4636913D1*
X1030123Y5604583D2*
X1217123D1*
X1528873D2*
X1651617D1*
X2452407D2*
X3177307D1*
X3650200D2*
X4074637D1*
X4386387D2*
X4636913D1*
X1030123Y5541417D2*
X1158607D1*
X1587390D2*
X1651617D1*
X2389197D2*
X3194850D1*
X3713363D2*
X4074637D1*
X4386387D2*
X4636913D1*
X1030123Y5478250D2*
X1158607D1*
X1587390D2*
X1651617D1*
X2252570D2*
X3237097D1*
X3776573D2*
X4074637D1*
X4386387D2*
X4636913D1*
X1030123Y5415083D2*
X1158607D1*
X1587390D2*
X1651617D1*
X2315733D2*
X3346837D1*
X3839740D2*
X4049800D1*
X4386387D2*
X4636913D1*
X1030123Y5351917D2*
X1158607D1*
X1587390D2*
X1653163D1*
X2378900D2*
X3467287D1*
X4384060D2*
X4636913D1*
X1030123Y5288750D2*
X1158607D1*
X1587390D2*
X1670253D1*
X2442063D2*
X3248353D1*
X4356810D2*
X4636913D1*
X1030123Y5225583D2*
X1158607D1*
X1587390D2*
X1676087D1*
X2505043D2*
X3200093D1*
X4295877D2*
X4636913D1*
X1030123Y5162417D2*
X1654943D1*
X2107057D2*
X2132773D1*
X2539863D2*
X3178947D1*
X3631013D2*
X3656777D1*
X4232713D2*
X4636913D1*
X1030123Y5099250D2*
X1653027D1*
X2108970D2*
X2195940D1*
X2544877D2*
X3176987D1*
X3632973D2*
X4636913D1*
X1030123Y5036083D2*
X1669707D1*
X2092290D2*
X2233127D1*
X2544877D2*
X3193713D1*
X3616293D2*
X4636913D1*
X1030123Y4972917D2*
X1710587D1*
X2051413D2*
X2233127D1*
X2544877D2*
X3200777D1*
X3609187D2*
X4636913D1*
X1030123Y4909750D2*
X1812717D1*
X1949283D2*
X2233127D1*
X2544877D2*
X3179220D1*
X3630787D2*
X4636913D1*
X1030123Y4846583D2*
X2233127D1*
X2544877D2*
X3163770D1*
X3646237D2*
X4636913D1*
X1030123Y4783417D2*
X1727313D1*
X2034687D2*
X2233127D1*
X2544877D2*
X3100607D1*
X3709400D2*
X3781193D1*
X4044817D2*
X4636913D1*
X1030123Y4720250D2*
X1677500D1*
X2084497D2*
X2233127D1*
X2544877D2*
X3037443D1*
X4100733D2*
X4636913D1*
X1030123Y4657083D2*
X1655443D1*
X2106557D2*
X2233127D1*
X2544877D2*
X2974277D1*
X4124477D2*
X4636913D1*
X1030123Y4593917D2*
X1652710D1*
X2109290D2*
X2233127D1*
X2544877D2*
X2911113D1*
X4127393D2*
X4636913D1*
X1030123Y4530750D2*
X1668570D1*
X2093430D2*
X2233127D1*
X2544877D2*
X2874063D1*
X4110397D2*
X4636913D1*
X1030123Y4467583D2*
X1678183D1*
X2083813D2*
X2233127D1*
X2544877D2*
X2868140D1*
X4099960D2*
X4636913D1*
X1030123Y4404417D2*
X1655717D1*
X2106280D2*
X2233127D1*
X2544877D2*
X2868140D1*
X4124203D2*
X4636913D1*
X1030123Y4341250D2*
X1652617D1*
X2109380D2*
X2233127D1*
X2544877D2*
X2868140D1*
X4151550D2*
X4636913D1*
X1030123Y4278083D2*
X1119870D1*
X1372103D2*
X1668023D1*
X2093977D2*
X2233127D1*
X2544877D2*
X2868140D1*
X4214713D2*
X4636913D1*
X1030123Y4214917D2*
X1061220D1*
X1483893D2*
X1678913D1*
X2083087D2*
X2233127D1*
X2544877D2*
X2868140D1*
X3179890D2*
X3202917D1*
X4277877D2*
X4636913D1*
X1547057Y4151750D2*
X1655943D1*
X2106053D2*
X2233127D1*
X2544877D2*
X2868140D1*
X3814857D2*
X3905423D1*
X4341040D2*
X4636913D1*
X1610220Y4088583D2*
X1652480D1*
X2109517D2*
X2233127D1*
X2544877D2*
X2868140D1*
X3814857D2*
X3968633D1*
X4404203D2*
X4636913D1*
X2094523Y4025417D2*
X2233127D1*
X2544877D2*
X2868140D1*
X3814857D2*
X4031797D1*
X4467370D2*
X4636913D1*
X1655883Y3962250D2*
X1679643D1*
X2082357D2*
X2233127D1*
X2544877D2*
X2868140D1*
X3179890D2*
X3203647D1*
X3832037D2*
X4094963D1*
X4530533D2*
X4636913D1*
X2105780Y3899083D2*
X2233127D1*
X2544877D2*
X2868140D1*
X4085650D2*
X4158127D1*
X4569907D2*
X4636913D1*
X2109653Y3835917D2*
X2233127D1*
X2544877D2*
X2868140D1*
X4148907D2*
X4221290D1*
X4576880D2*
X4636913D1*
X2095027Y3772750D2*
X2233127D1*
X2544877D2*
X2868140D1*
X4212070D2*
X4265130D1*
X4576880D2*
X4636913D1*
X1655883Y3709583D2*
X1680417D1*
X2081580D2*
X2233127D1*
X2544877D2*
X2868140D1*
X3179890D2*
X3204420D1*
X3605587D2*
X3649123D1*
X4576880D2*
X4636913D1*
X2105507Y3646417D2*
X2233127D1*
X2544877D2*
X2868140D1*
X3629467D2*
X3739677D1*
X4576880D2*
X4636913D1*
X1030123Y3583250D2*
X1090110D1*
X2109747D2*
X2233127D1*
X2544877D2*
X2868140D1*
X3633750D2*
X3947623D1*
X4576880D2*
X4636913D1*
X1030123Y3520083D2*
X1090110D1*
X2095573D2*
X2233127D1*
X2544877D2*
X2868140D1*
X3619577D2*
X3947623D1*
X4576880D2*
X4636913D1*
X1030123Y3456917D2*
X1090110D1*
X1655883D2*
X1681147D1*
X2080853D2*
X2233127D1*
X2544877D2*
X2868140D1*
X3179890D2*
X3205150D1*
X3604810D2*
X3947623D1*
X4576880D2*
X4636913D1*
X1030123Y3393750D2*
X1090110D1*
X2105187D2*
X2233127D1*
X2544877D2*
X2868140D1*
X3629193D2*
X3947623D1*
X4576880D2*
X4636913D1*
X1030123Y3330583D2*
X1062677D1*
X2109837D2*
X2233127D1*
X2544877D2*
X2868140D1*
X3633840D2*
X3947623D1*
X4576880D2*
X4636913D1*
X2096073Y3267417D2*
X2233127D1*
X2544877D2*
X2868140D1*
X3620077D2*
X3947623D1*
X4576880D2*
X4636913D1*
X1655883Y3204250D2*
X1681920D1*
X2080077D2*
X2233127D1*
X2544877D2*
X2868140D1*
X3179890D2*
X3205927D1*
X3604080D2*
X3947623D1*
X4576880D2*
X4636913D1*
X2104913Y3141083D2*
X2233127D1*
X2544877D2*
X2868140D1*
X3628920D2*
X3947623D1*
X4576880D2*
X4636913D1*
X1030123Y3077917D2*
X1085143D1*
X2109927D2*
X2233127D1*
X2544877D2*
X2868140D1*
X3633930D2*
X3947623D1*
X4576880D2*
X4636913D1*
X1030123Y3014750D2*
X1090110D1*
X2096573D2*
X2233127D1*
X2544877D2*
X2868140D1*
X3620580D2*
X3947623D1*
X4576880D2*
X4636913D1*
X1030123Y2951583D2*
X1090110D1*
X1655883D2*
X1682743D1*
X2079257D2*
X2233127D1*
X2544877D2*
X2868140D1*
X3179890D2*
X3206700D1*
X3603260D2*
X3948217D1*
X4576880D2*
X4636913D1*
X1030123Y2888417D2*
X1090110D1*
X2104597D2*
X2233127D1*
X2544877D2*
X2868140D1*
X3628600D2*
X3968723D1*
X4576880D2*
X4636913D1*
X1030123Y2825250D2*
X1090110D1*
X2110020D2*
X2233127D1*
X2544877D2*
X2868140D1*
X3634023D2*
X4025463D1*
X4576880D2*
X4636913D1*
X1030123Y2762083D2*
X1090110D1*
X2097030D2*
X2233127D1*
X2544877D2*
X2868140D1*
X3621033D2*
X4088627D1*
X4576880D2*
X4636913D1*
X1030123Y2698917D2*
X1090110D1*
X1655883D2*
X1683517D1*
X2078483D2*
X2233127D1*
X2544877D2*
X2868140D1*
X3602487D2*
X4132970D1*
X4576880D2*
X4636913D1*
X1030123Y2635750D2*
X1090110D1*
X2104277D2*
X2233127D1*
X2544877D2*
X2868140D1*
X3628280D2*
X4239017D1*
X4576880D2*
X4636913D1*
X1030123Y2572583D2*
X1090110D1*
X2110063D2*
X2233127D1*
X2544877D2*
X2868140D1*
X3634067D2*
X4265130D1*
X4576880D2*
X4636913D1*
X1030123Y2509417D2*
X1090110D1*
X2097530D2*
X2233127D1*
X2544877D2*
X2868140D1*
X3621537D2*
X4182370D1*
X4576880D2*
X4636913D1*
X1030123Y2446250D2*
X1090523D1*
X2077663D2*
X2233127D1*
X2544877D2*
X2868140D1*
X3601667D2*
X4066617D1*
X4576880D2*
X4636913D1*
X1030123Y2383083D2*
X1109663D1*
X2103957D2*
X2233127D1*
X2544877D2*
X2868140D1*
X3627960D2*
X4002267D1*
X4576880D2*
X4636913D1*
X1030123Y2319917D2*
X1165260D1*
X2110157D2*
X2233127D1*
X2544877D2*
X2868140D1*
X3634160D2*
X3939103D1*
X4576880D2*
X4636913D1*
X1030123Y2256750D2*
X1228427D1*
X2097987D2*
X2233127D1*
X2544877D2*
X2859937D1*
X3621990D2*
X3894123D1*
X4576880D2*
X4636913D1*
X1030123Y2193583D2*
X1291637D1*
X2076840D2*
X2211070D1*
X2566933D2*
X2796773D1*
X3600847D2*
X3884140D1*
X4576560D2*
X4636913D1*
X1030123Y2130417D2*
X1344137D1*
X2103640D2*
X2181857D1*
X2596143D2*
X2733607D1*
X3627643D2*
X3884140D1*
X4558060D2*
X4636913D1*
X1030123Y2067250D2*
X1344137D1*
X2110200D2*
X2174793D1*
X2603163D2*
X2670443D1*
X3634203D2*
X3884140D1*
X4508203D2*
X4636913D1*
X1030123Y2004083D2*
X1344137D1*
X2098443D2*
X2187463D1*
X3622447D2*
X3884140D1*
X4508383D2*
X4636913D1*
X1030123Y1940917D2*
X1344363D1*
X3106697D2*
X3221193D1*
X3588813D2*
X3884140D1*
X4508383D2*
X4636913D1*
X1030123Y1877750D2*
X1362183D1*
X3043533D2*
X3296480D1*
X3513483D2*
X3884140D1*
X4508383D2*
X4636913D1*
X1030123Y1814583D2*
X1416597D1*
X2980370D2*
X3884140D1*
X4508383D2*
X4636913D1*
X1030123Y1751417D2*
X1479760D1*
X2917207D2*
X3878627D1*
X4508383D2*
X4636913D1*
X1030123Y1688250D2*
X1542923D1*
X2854043D2*
X3815463D1*
X4508383D2*
X4636913D1*
X1030123Y1625083D2*
X1606133D1*
X2790877D2*
X3752300D1*
X4508383D2*
X4636913D1*
X1030123Y1561917D2*
X1220040D1*
X1525957D2*
X1679507D1*
X2717507D2*
X3689137D1*
X4446953D2*
X4636913D1*
X1030123Y1498750D2*
X1145710D1*
X1600330D2*
X2213620D1*
X4521327D2*
X4636913D1*
X1030123Y1435583D2*
X1105560D1*
X1640437D2*
X2182903D1*
X3998377D2*
X4026557D1*
X4561430D2*
X4636913D1*
X1030123Y1372417D2*
X1084597D1*
X1661400D2*
X2174700D1*
X3935213D2*
X4005640D1*
X4582393D2*
X4636913D1*
X1030123Y1309250D2*
X1078673D1*
X1667323D2*
X2186140D1*
X3872050D2*
X3999670D1*
X4588320D2*
X4636913D1*
X1030123Y1246083D2*
X1086740D1*
X1659257D2*
X2221413D1*
X3800180D2*
X4007737D1*
X4580253D2*
X4636913D1*
X1030123Y1182917D2*
X1110210D1*
X1635833D2*
X2309097D1*
X2468907D2*
X4031207D1*
X4556830D2*
X4636913D1*
X1030123Y1119750D2*
X1154003D1*
X1591990D2*
X4075000D1*
X4512987D2*
X4636913D1*
X1030123Y1056583D2*
X1237450D1*
X1508547D2*
X4158443D1*
X4429543D2*
X4636913D1*
X4253027Y3295707D2*
X4270703Y3298710D1*
X4271500Y3298757D1*
X4271480Y3439263D1*
Y3792067D1*
X3910750Y4152797D1*
X3889717Y4154080D1*
X3866583Y4157993D1*
X3844033Y4164473D1*
X3822350Y4173437D1*
X3808527Y4181067D1*
X3808520Y3979420D1*
X3847937Y3940017D1*
X3976500Y3940020D1*
X3999740Y3938203D1*
X4022413Y3932797D1*
X4043970Y3923930D1*
X4063890Y3911823D1*
X4081700Y3896750D1*
X4209227Y3769227D1*
X4224373Y3751510D1*
X4236583Y3731653D1*
X4245560Y3710140D1*
X4251083Y3687497D1*
X4253017Y3664243D1*
X4253020Y3295937D1*
X4080967Y5761740D2*
X4076663Y5755663D1*
X4061040Y5738160D1*
X4043557Y5722513D1*
X4024430Y5708923D1*
X4003903Y5697560D1*
X3982233Y5688567D1*
X3959693Y5682057D1*
X3936567Y5678110D1*
X3913140Y5676780D1*
X3889717Y5678080D1*
X3866583Y5681993D1*
X3844033Y5688473D1*
X3822350Y5697437D1*
X3801807Y5708773D1*
X3782663Y5722337D1*
X3766817Y5736480D1*
X3602037D1*
X3608730Y5722730D1*
X3617097Y5700937D1*
X3623143Y5678390D1*
X3626797Y5655333D1*
X3628020Y5632000D1*
X3627443Y5621013D1*
X3847933Y5400520D1*
X4041580D1*
X4080983Y5439937D1*
X4080980Y5761300D1*
X1657980Y5828980D2*
Y5408980D1*
X1660413Y5408970D1*
X1659200Y5401290D1*
X1657980Y5377980D1*
X1659203Y5354667D1*
X1662857Y5331610D1*
X1668903Y5309063D1*
X1677270Y5287270D1*
X1687870Y5266470D1*
X1697790Y5251197D1*
X1697793Y5250807D1*
X1687850Y5235490D1*
X1677253Y5214690D1*
X1668890Y5192897D1*
X1662850Y5170347D1*
X1659200Y5147290D1*
X1657980Y5123980D1*
X1659203Y5100667D1*
X1662857Y5077610D1*
X1668903Y5055063D1*
X1677270Y5033270D1*
X1687870Y5012470D1*
X1700587Y4992893D1*
X1715277Y4974753D1*
X1731787Y4958250D1*
X1749930Y4943560D1*
X1769510Y4930850D1*
X1790310Y4920253D1*
X1812103Y4911890D1*
X1834653Y4905850D1*
X1857710Y4902200D1*
X1881020Y4900980D1*
X1904333Y4902203D1*
X1927390Y4905857D1*
X1949937Y4911903D1*
X1971730Y4920270D1*
X1992530Y4930870D1*
X2012107Y4943587D1*
X2030247Y4958277D1*
X2046750Y4974787D1*
X2061440Y4992930D1*
X2074150Y5012510D1*
X2084747Y5033310D1*
X2093110Y5055103D1*
X2099150Y5077653D1*
X2102800Y5100710D1*
X2104020Y5124020D1*
X2102797Y5147333D1*
X2099143Y5170390D1*
X2093097Y5192937D1*
X2084730Y5214730D1*
X2082567Y5218973D1*
X2239480Y5062083D1*
X2239490Y2220387D1*
X2226360Y2205693D1*
X2212860Y2186667D1*
X2201577Y2166250D1*
X2192650Y2144700D1*
X2186193Y2122283D1*
X2182287Y2099283D1*
X2180980Y2075993D1*
X2182290Y2052703D1*
X2186197Y2029703D1*
X2192657Y2007290D1*
X2201583Y1985737D1*
X2209130Y1971520D1*
X2077720Y1971517D1*
X2084747Y1985310D1*
X2093110Y2007103D1*
X2099150Y2029653D1*
X2102800Y2052710D1*
X2104020Y2076020D1*
X2102797Y2099333D1*
X2099143Y2122390D1*
X2093097Y2144937D1*
X2084730Y2166730D1*
X2074130Y2187530D1*
X2064207Y2203193D1*
X2074150Y2218510D1*
X2084747Y2239310D1*
X2093110Y2261103D1*
X2099150Y2283653D1*
X2102800Y2306710D1*
X2104020Y2330020D1*
X2102797Y2353333D1*
X2099143Y2376390D1*
X2093097Y2398937D1*
X2084730Y2420730D1*
X2074130Y2441530D1*
X2064207Y2457193D1*
X2074150Y2472510D1*
X2084747Y2493310D1*
X2093110Y2515103D1*
X2099150Y2537653D1*
X2102800Y2560710D1*
X2104020Y2584020D1*
X2102797Y2607333D1*
X2099143Y2630390D1*
X2093097Y2652937D1*
X2084730Y2674730D1*
X2074130Y2695530D1*
X2064207Y2711193D1*
X2074150Y2726510D1*
X2084747Y2747310D1*
X2093110Y2769103D1*
X2099150Y2791653D1*
X2102800Y2814710D1*
X2104020Y2838020D1*
X2102797Y2861333D1*
X2099143Y2884390D1*
X2093097Y2906937D1*
X2084730Y2928730D1*
X2074130Y2949530D1*
X2064207Y2965193D1*
X2074150Y2980510D1*
X2084747Y3001310D1*
X2093110Y3023103D1*
X2099150Y3045653D1*
X2102800Y3068710D1*
X2104020Y3092020D1*
X2102797Y3115333D1*
X2099143Y3138390D1*
X2093097Y3160937D1*
X2084730Y3182730D1*
X2074130Y3203530D1*
X2064207Y3219193D1*
X2074150Y3234510D1*
X2084747Y3255310D1*
X2093110Y3277103D1*
X2099150Y3299653D1*
X2102800Y3322710D1*
X2104020Y3346020D1*
X2102797Y3369333D1*
X2099143Y3392390D1*
X2093097Y3414937D1*
X2084730Y3436730D1*
X2074130Y3457530D1*
X2064207Y3473193D1*
X2074150Y3488510D1*
X2084747Y3509310D1*
X2093110Y3531103D1*
X2099150Y3553653D1*
X2102800Y3576710D1*
X2104020Y3600020D1*
X2102797Y3623333D1*
X2099143Y3646390D1*
X2093097Y3668937D1*
X2084730Y3690730D1*
X2074130Y3711530D1*
X2064207Y3727193D1*
X2074150Y3742510D1*
X2084747Y3763310D1*
X2093110Y3785103D1*
X2099150Y3807653D1*
X2102800Y3830710D1*
X2104020Y3854020D1*
X2102797Y3877333D1*
X2099143Y3900390D1*
X2093097Y3922937D1*
X2084730Y3944730D1*
X2074130Y3965530D1*
X2064207Y3981193D1*
X2074150Y3996510D1*
X2084747Y4017310D1*
X2093110Y4039103D1*
X2099150Y4061653D1*
X2102800Y4084710D1*
X2104020Y4108020D1*
X2102797Y4131333D1*
X2099143Y4154390D1*
X2093097Y4176937D1*
X2084730Y4198730D1*
X2074130Y4219530D1*
X2064207Y4235193D1*
X2074150Y4250510D1*
X2084747Y4271310D1*
X2093110Y4293103D1*
X2099150Y4315653D1*
X2102800Y4338710D1*
X2104020Y4362020D1*
X2102797Y4385333D1*
X2099143Y4408390D1*
X2093097Y4430937D1*
X2084730Y4452730D1*
X2074130Y4473530D1*
X2064207Y4489193D1*
X2074150Y4504510D1*
X2084747Y4525310D1*
X2093110Y4547103D1*
X2099150Y4569653D1*
X2102800Y4592710D1*
X2104020Y4616020D1*
X2102797Y4639333D1*
X2099143Y4662390D1*
X2093097Y4684937D1*
X2084730Y4706730D1*
X2074130Y4727530D1*
X2061413Y4747107D1*
X2046723Y4765247D1*
X2030213Y4781750D1*
X2012070Y4796440D1*
X1992490Y4809150D1*
X1971690Y4819747D1*
X1949897Y4828110D1*
X1927347Y4834150D1*
X1904290Y4837800D1*
X1880980Y4839020D1*
X1857667Y4837797D1*
X1834610Y4834143D1*
X1812063Y4828097D1*
X1790270Y4819730D1*
X1769470Y4809130D1*
X1749893Y4796413D1*
X1731753Y4781723D1*
X1715250Y4765213D1*
X1700560Y4747070D1*
X1687850Y4727490D1*
X1677253Y4706690D1*
X1668890Y4684897D1*
X1662850Y4662347D1*
X1659200Y4639290D1*
X1657980Y4615980D1*
X1659203Y4592667D1*
X1662857Y4569610D1*
X1668903Y4547063D1*
X1677270Y4525270D1*
X1687870Y4504470D1*
X1697790Y4489197D1*
X1697793Y4488807D1*
X1687850Y4473490D1*
X1677253Y4452690D1*
X1668890Y4430897D1*
X1662850Y4408347D1*
X1659200Y4385290D1*
X1657980Y4361980D1*
X1659203Y4338667D1*
X1662857Y4315610D1*
X1668903Y4293063D1*
X1677270Y4271270D1*
X1687870Y4250470D1*
X1697790Y4235197D1*
X1697793Y4234807D1*
X1687850Y4219490D1*
X1677253Y4198690D1*
X1668890Y4176897D1*
X1662850Y4154347D1*
X1659200Y4131290D1*
X1657980Y4107980D1*
X1659203Y4084667D1*
X1662857Y4061610D1*
X1668903Y4039063D1*
X1677270Y4017270D1*
X1687870Y3996470D1*
X1697790Y3981197D1*
X1697793Y3980807D1*
X1687850Y3965490D1*
X1677253Y3944690D1*
X1668890Y3922897D1*
X1662850Y3900347D1*
X1659200Y3877290D1*
X1657980Y3853980D1*
X1659203Y3830667D1*
X1662857Y3807610D1*
X1668903Y3785063D1*
X1677270Y3763270D1*
X1687870Y3742470D1*
X1697790Y3727197D1*
X1697793Y3726807D1*
X1687850Y3711490D1*
X1677253Y3690690D1*
X1668890Y3668897D1*
X1662850Y3646347D1*
X1659200Y3623290D1*
X1657980Y3599980D1*
X1659203Y3576667D1*
X1662857Y3553610D1*
X1668903Y3531063D1*
X1677270Y3509270D1*
X1687870Y3488470D1*
X1697790Y3473197D1*
X1697793Y3472807D1*
X1687850Y3457490D1*
X1677253Y3436690D1*
X1668890Y3414897D1*
X1662850Y3392347D1*
X1659200Y3369290D1*
X1657980Y3345980D1*
X1659203Y3322667D1*
X1662857Y3299610D1*
X1668903Y3277063D1*
X1677270Y3255270D1*
X1687870Y3234470D1*
X1697790Y3219197D1*
X1697793Y3218807D1*
X1687850Y3203490D1*
X1677253Y3182690D1*
X1668890Y3160897D1*
X1662850Y3138347D1*
X1659200Y3115290D1*
X1657980Y3091980D1*
X1659203Y3068667D1*
X1662857Y3045610D1*
X1668903Y3023063D1*
X1677270Y3001270D1*
X1687870Y2980470D1*
X1697790Y2965197D1*
X1697793Y2964807D1*
X1687850Y2949490D1*
X1677253Y2928690D1*
X1668890Y2906897D1*
X1662850Y2884347D1*
X1659200Y2861290D1*
X1657980Y2837980D1*
X1659203Y2814667D1*
X1662857Y2791610D1*
X1668903Y2769063D1*
X1677270Y2747270D1*
X1687870Y2726470D1*
X1697790Y2711197D1*
X1697793Y2710807D1*
X1687850Y2695490D1*
X1677253Y2674690D1*
X1668890Y2652897D1*
X1662850Y2630347D1*
X1659200Y2607290D1*
X1657980Y2583980D1*
X1659203Y2560667D1*
X1662857Y2537610D1*
X1668903Y2515063D1*
X1677270Y2493270D1*
X1679433Y2489027D1*
X1649520Y2518920D1*
X1649490Y3984063D1*
X1647197Y4007260D1*
X1641327Y4029820D1*
X1632020Y4051190D1*
X1619493Y4070873D1*
X1605667Y4086787D1*
X1476537Y4215870D1*
X1458513Y4230653D1*
X1438410Y4242453D1*
X1416720Y4250987D1*
X1393967Y4256043D1*
X1391677Y4256357D1*
X1375693Y4270640D1*
X1356667Y4284140D1*
X1336250Y4295423D1*
X1314700Y4304350D1*
X1292283Y4310807D1*
X1269283Y4314713D1*
X1245993Y4316020D1*
X1222703Y4314710D1*
X1199703Y4310803D1*
X1177290Y4304343D1*
X1155737Y4295417D1*
X1135320Y4284133D1*
X1116297Y4270633D1*
X1098903Y4255087D1*
X1083360Y4237693D1*
X1069860Y4218667D1*
X1058577Y4198250D1*
X1049650Y4176700D1*
X1043193Y4154283D1*
X1039287Y4131283D1*
X1037980Y4107993D1*
X1039290Y4084703D1*
X1043107Y4062020D1*
X1037980D1*
Y3645980D1*
X1096480Y3645990D1*
X1096467Y3365183D1*
X1082327Y3349337D1*
X1068763Y3330193D1*
X1057427Y3309650D1*
X1048463Y3287967D1*
X1041983Y3265417D1*
X1038067Y3242283D1*
X1036770Y3218860D1*
X1038100Y3195433D1*
X1042047Y3172307D1*
X1048557Y3149767D1*
X1057550Y3128097D1*
X1068913Y3107570D1*
X1082500Y3088443D1*
X1096470Y3072667D1*
Y2456243D1*
X1098407Y2433013D1*
X1103930Y2410370D1*
X1112907Y2388857D1*
X1125117Y2369000D1*
X1140263Y2351283D1*
X1350480Y2141087D1*
Y1948233D1*
X1352417Y1925003D1*
X1357940Y1902360D1*
X1366917Y1880847D1*
X1379127Y1860990D1*
X1394273Y1843273D1*
X1648817Y1588733D1*
X1666610Y1573677D1*
X1686530Y1561567D1*
X1708087Y1552703D1*
X1730760Y1547297D1*
X1754000Y1545480D1*
X2266820Y1545473D1*
X2259297Y1540133D1*
X2241903Y1524587D1*
X2226360Y1507193D1*
X2212860Y1488167D1*
X2201577Y1467750D1*
X2192650Y1446200D1*
X2186193Y1423783D1*
X2182287Y1400783D1*
X2180980Y1377493D1*
X2182290Y1354203D1*
X2186197Y1331203D1*
X2192657Y1308790D1*
X2201583Y1287237D1*
X2212867Y1266820D1*
X2226367Y1247797D1*
X2241913Y1230403D1*
X2259307Y1214860D1*
X2278333Y1201360D1*
X2298750Y1190077D1*
X2320300Y1181150D1*
X2342717Y1174693D1*
X2365717Y1170787D1*
X2389007Y1169480D1*
X2412297Y1170790D1*
X2435297Y1174697D1*
X2457710Y1181157D1*
X2479263Y1190083D1*
X2499680Y1201367D1*
X2518703Y1214867D1*
X2533640Y1227980D1*
X3723267Y1227983D1*
X3746497Y1229917D1*
X3769140Y1235440D1*
X3790653Y1244417D1*
X3810510Y1256627D1*
X3828227Y1271773D1*
X4146267Y1589817D1*
X4161323Y1607610D1*
X4165670Y1613980D1*
X4502020D1*
Y2030020D1*
X4496857Y2030010D1*
X4500713Y2052717D1*
X4501817Y2072383D1*
X4527267Y2097817D1*
X4542323Y2115610D1*
X4554430Y2135530D1*
X4563297Y2157087D1*
X4568703Y2179760D1*
X4570520Y2203000D1*
X4570517Y3854767D1*
X4568583Y3877997D1*
X4563060Y3900640D1*
X4554083Y3922153D1*
X4541873Y3942010D1*
X4526727Y3959727D1*
X4122093Y4364360D1*
X4120890Y4385567D1*
X4116943Y4408693D1*
X4110433Y4431233D1*
X4101440Y4452903D1*
X4090077Y4473430D1*
X4079140Y4489160D1*
X4090227Y4504807D1*
X4101563Y4525350D1*
X4110527Y4547033D1*
X4117007Y4569583D1*
X4120920Y4592717D1*
X4122220Y4616140D1*
X4120890Y4639567D1*
X4116943Y4662693D1*
X4110433Y4685233D1*
X4101440Y4706903D1*
X4090077Y4727430D1*
X4076487Y4746557D1*
X4060840Y4764040D1*
X4043337Y4779663D1*
X4024193Y4793227D1*
X4003650Y4804563D1*
X3981967Y4813527D1*
X3959417Y4820007D1*
X3936283Y4823920D1*
X3912860Y4825220D1*
X3889433Y4823890D1*
X3866307Y4819943D1*
X3843767Y4813433D1*
X3822097Y4804440D1*
X3801570Y4793077D1*
X3782443Y4779487D1*
X3764960Y4763840D1*
X3749337Y4746337D1*
X3745510Y4740933D1*
X3627443Y4859013D1*
X3628020Y4870020D1*
X3626797Y4893333D1*
X3623143Y4916390D1*
X3617097Y4938937D1*
X3608730Y4960730D1*
X3598130Y4981530D1*
X3588210Y4996803D1*
X3588207Y4997193D1*
X3598150Y5012510D1*
X3608747Y5033310D1*
X3617110Y5055103D1*
X3623150Y5077653D1*
X3626800Y5100710D1*
X3628020Y5124020D1*
X3626797Y5147333D1*
X3623143Y5170390D1*
X3617097Y5192937D1*
X3608730Y5214730D1*
X3606567Y5218973D1*
X3682463Y5143127D1*
X3700487Y5128347D1*
X3720590Y5116547D1*
X3742280Y5108013D1*
X3765057Y5102957D1*
X3786073Y5101480D1*
X4106563Y5101510D1*
X4129760Y5103803D1*
X4152320Y5109673D1*
X4173690Y5118980D1*
X4193373Y5131507D1*
X4209287Y5145333D1*
X4338370Y5274463D1*
X4353153Y5292487D1*
X4364953Y5312590D1*
X4373487Y5334280D1*
X4378543Y5357057D1*
X4380020Y5378083D1*
X4379990Y5882560D1*
X4377697Y5905757D1*
X4374593Y5919480D1*
X4386153Y5917597D1*
X4409270Y5915720D1*
X4432467Y5915707D1*
X4455587Y5917563D1*
X4478483Y5921273D1*
X4501007Y5926813D1*
X4523010Y5934150D1*
X4544353Y5943230D1*
X4564897Y5954000D1*
X4584507Y5966390D1*
X4603053Y5980313D1*
X4620423Y5995687D1*
X4636497Y6012410D1*
X4643250Y6020303D1*
X4643257Y1028250D1*
X4329853D1*
X4339613Y1029613D1*
X4351093Y1031697D1*
X4362477Y1034240D1*
X4373750Y1037240D1*
X4384893Y1040697D1*
X4395887Y1044603D1*
X4406713Y1048950D1*
X4417353Y1053730D1*
X4437897Y1064500D1*
X4457507Y1076890D1*
X4476053Y1090813D1*
X4493423Y1106187D1*
X4509497Y1122910D1*
X4524177Y1140870D1*
X4537360Y1159950D1*
X4548967Y1180033D1*
X4558920Y1200983D1*
X4567157Y1222667D1*
X4573620Y1244943D1*
X4578270Y1267667D1*
X4581077Y1290693D1*
X4582020Y1314000D1*
X4581847Y1323947D1*
X4580113Y1347077D1*
X4576527Y1369990D1*
X4571103Y1392543D1*
X4563887Y1414587D1*
X4554917Y1435977D1*
X4544257Y1456577D1*
X4531970Y1476250D1*
X4518143Y1494873D1*
X4502863Y1512323D1*
X4486227Y1528487D1*
X4468343Y1543260D1*
X4449333Y1556543D1*
X4429310Y1568257D1*
X4408413Y1578320D1*
X4386773Y1586670D1*
X4364533Y1593250D1*
X4341833Y1598020D1*
X4318823Y1600947D1*
X4295653Y1602017D1*
X4272473Y1601213D1*
X4249430Y1598550D1*
X4226680Y1594043D1*
X4204363Y1587717D1*
X4182630Y1579617D1*
X4161617Y1569793D1*
X4141463Y1558310D1*
X4122300Y1545243D1*
X4104247Y1530680D1*
X4087427Y1514707D1*
X4071947Y1497433D1*
X4057907Y1478973D1*
X4045397Y1459440D1*
X4034500Y1438963D1*
X4025287Y1417677D1*
X4017817Y1395720D1*
X4012137Y1373230D1*
X4008283Y1350357D1*
X4006283Y1327250D1*
X4006153Y1304053D1*
X4007887Y1280923D1*
X4011473Y1258010D1*
X4016897Y1235457D1*
X4024113Y1213413D1*
X4033083Y1192023D1*
X4043743Y1171423D1*
X4056030Y1151750D1*
X4069857Y1133127D1*
X4085137Y1115677D1*
X4101773Y1099513D1*
X4119657Y1084740D1*
X4138667Y1071457D1*
X4158690Y1059743D1*
X4169097Y1054473D1*
X4179707Y1049627D1*
X4190507Y1045217D1*
X4201477Y1041247D1*
X4212597Y1037723D1*
X4223853Y1034653D1*
X4235223Y1032040D1*
X4246690Y1029893D1*
X4257890Y1028250D1*
X1408853D1*
X1418613Y1029613D1*
X1430093Y1031697D1*
X1441477Y1034240D1*
X1452750Y1037240D1*
X1463893Y1040697D1*
X1474887Y1044603D1*
X1485713Y1048950D1*
X1496353Y1053730D1*
X1516897Y1064500D1*
X1536507Y1076890D1*
X1555053Y1090813D1*
X1572423Y1106187D1*
X1588497Y1122910D1*
X1603177Y1140870D1*
X1616360Y1159950D1*
X1627967Y1180033D1*
X1637920Y1200983D1*
X1646157Y1222667D1*
X1652620Y1244943D1*
X1657270Y1267667D1*
X1660077Y1290693D1*
X1661020Y1314000D1*
X1660847Y1323947D1*
X1659113Y1347077D1*
X1655527Y1369990D1*
X1650103Y1392543D1*
X1642887Y1414587D1*
X1633917Y1435977D1*
X1623257Y1456577D1*
X1610970Y1476250D1*
X1597143Y1494873D1*
X1581863Y1512323D1*
X1565227Y1528487D1*
X1547343Y1543260D1*
X1528333Y1556543D1*
X1508310Y1568257D1*
X1487413Y1578320D1*
X1465773Y1586670D1*
X1443533Y1593250D1*
X1420833Y1598020D1*
X1397823Y1600947D1*
X1374653Y1602017D1*
X1351473Y1601213D1*
X1328430Y1598550D1*
X1305680Y1594043D1*
X1283363Y1587717D1*
X1261630Y1579617D1*
X1240617Y1569793D1*
X1220463Y1558310D1*
X1201300Y1545243D1*
X1183247Y1530680D1*
X1166427Y1514707D1*
X1150947Y1497433D1*
X1136907Y1478973D1*
X1124397Y1459440D1*
X1113500Y1438963D1*
X1104287Y1417677D1*
X1096817Y1395720D1*
X1091137Y1373230D1*
X1087283Y1350357D1*
X1085283Y1327250D1*
X1085153Y1304053D1*
X1086887Y1280923D1*
X1090473Y1258010D1*
X1095897Y1235457D1*
X1103113Y1213413D1*
X1112083Y1192023D1*
X1122743Y1171423D1*
X1135030Y1151750D1*
X1148857Y1133127D1*
X1164137Y1115677D1*
X1180773Y1099513D1*
X1198657Y1084740D1*
X1217667Y1071457D1*
X1237690Y1059743D1*
X1248097Y1054473D1*
X1258707Y1049627D1*
X1269507Y1045217D1*
X1280477Y1041247D1*
X1291597Y1037723D1*
X1302853Y1034653D1*
X1314223Y1032040D1*
X1325690Y1029893D1*
X1336897Y1028250D1*
X1023750Y1028233D1*
X1023753Y6020663D1*
X1030327Y6012607D1*
X1046387Y5995870D1*
X1063740Y5980483D1*
X1082277Y5966540D1*
X1101877Y5954133D1*
X1122410Y5943343D1*
X1143743Y5934243D1*
X1165740Y5926890D1*
X1188260Y5921327D1*
X1211153Y5917597D1*
X1234270Y5915720D1*
X1257467Y5915707D1*
X1280587Y5917563D1*
X1303483Y5921273D1*
X1326007Y5926813D1*
X1331053Y5928497D1*
X1265130Y5862537D1*
X1250347Y5844513D1*
X1238547Y5824413D1*
X1230013Y5802720D1*
X1224957Y5779943D1*
X1223480Y5758923D1*
X1223473Y5586020D1*
X1164980D1*
Y5169980D1*
X1581020D1*
Y5586020D1*
X1522520Y5586003D1*
Y5697067D1*
X1657980Y5832513D1*
Y5828980D1*
X1680487Y5855033D1*
X1815947Y5990480D1*
X2409027D1*
X2200057Y5781520D1*
X2104020Y5781533D1*
Y5855020D1*
X1680470D1*
X3182553Y2827030D2*
X3181980Y2837980D1*
X3183200Y2861290D1*
X3186850Y2884347D1*
X3192890Y2906897D1*
X3201253Y2928690D1*
X3211850Y2949490D1*
X3221793Y2964807D1*
X3211870Y2980470D1*
X3201270Y3001270D1*
X3192903Y3023063D1*
X3186857Y3045610D1*
X3183203Y3068667D1*
X3181980Y3091980D1*
X3183200Y3115290D1*
X3186850Y3138347D1*
X3192890Y3160897D1*
X3201253Y3182690D1*
X3211850Y3203490D1*
X3221793Y3218807D1*
X3211870Y3234470D1*
X3201270Y3255270D1*
X3192903Y3277063D1*
X3186857Y3299610D1*
X3183203Y3322667D1*
X3181980Y3345980D1*
X3183200Y3369290D1*
X3186850Y3392347D1*
X3192890Y3414897D1*
X3201253Y3436690D1*
X3211850Y3457490D1*
X3221793Y3472807D1*
X3211870Y3488470D1*
X3201270Y3509270D1*
X3192903Y3531063D1*
X3186857Y3553610D1*
X3183203Y3576667D1*
X3181980Y3599980D1*
X3183200Y3623290D1*
X3186850Y3646347D1*
X3192890Y3668897D1*
X3201253Y3690690D1*
X3211850Y3711490D1*
X3221793Y3726807D1*
X3211870Y3742470D1*
X3201270Y3763270D1*
X3192903Y3785063D1*
X3186857Y3807610D1*
X3183203Y3830667D1*
X3181980Y3853980D1*
X3183200Y3877290D1*
X3186850Y3900347D1*
X3192890Y3922897D1*
X3201253Y3944690D1*
X3211850Y3965490D1*
X3221793Y3980807D1*
X3211870Y3996470D1*
X3201270Y4017270D1*
X3192903Y4039063D1*
X3186857Y4061610D1*
X3183203Y4084667D1*
X3181980Y4107980D1*
X3183200Y4131290D1*
X3186850Y4154347D1*
X3192890Y4176897D1*
X3201253Y4198690D1*
X3211850Y4219490D1*
X3221793Y4234807D1*
X3211870Y4250470D1*
X3201270Y4271270D1*
X3192903Y4293063D1*
X3186857Y4315610D1*
X3183203Y4338667D1*
X3181980Y4361980D1*
X3183200Y4385290D1*
X3186850Y4408347D1*
X3192890Y4430897D1*
X3201253Y4452690D1*
X3203437Y4456977D1*
X3173520Y4427067D1*
Y2817963D1*
X3182267Y2826720D1*
X1664127Y6259493D2*
X1683810Y6272020D1*
X1705180Y6281327D1*
X1727740Y6287197D1*
X1750937Y6289490D1*
X1800417Y6289520D1*
X3969930D1*
X3990963Y6288043D1*
X4013717Y6282987D1*
X4035407Y6274453D1*
X4055510Y6262653D1*
X4073533Y6247870D1*
X4108503Y6212947D1*
X4133610Y6187857D1*
X4132980Y6203633D1*
X4133923Y6226807D1*
X4136730Y6249833D1*
X4141380Y6272557D1*
X4147843Y6294833D1*
X4156080Y6316517D1*
X4166033Y6337467D1*
X4177640Y6357550D1*
X4190823Y6376630D1*
X4205503Y6394590D1*
X4221577Y6411313D1*
X4237877Y6425740D1*
X2411690Y6425750D1*
X1429123D1*
X1445613Y6411130D1*
X1461673Y6394393D1*
X1476333Y6376420D1*
X1489503Y6357327D1*
X1501090Y6337233D1*
X1511023Y6316273D1*
X1519240Y6294580D1*
X1525683Y6272300D1*
X1530310Y6249570D1*
X1533097Y6226543D1*
X1534020Y6203500D1*
X1533077Y6180193D1*
X1530270Y6157167D1*
X1525620Y6134443D1*
X1520967Y6118410D1*
X1648227Y6245680D1*
X1664127Y6259493D1*
X2508493Y5213873D2*
X2521020Y5194190D1*
X2530327Y5172820D1*
X2536197Y5150260D1*
X2538490Y5127063D1*
X2538520Y5077577D1*
Y2220633D1*
X2551633Y2205703D1*
X2565133Y2186680D1*
X2576417Y2166263D1*
X2585343Y2144710D1*
X2591803Y2122297D1*
X2595710Y2099297D1*
X2597020Y2076000D1*
X2595713Y2052717D1*
X2591807Y2029717D1*
X2585350Y2007300D1*
X2576423Y1985750D1*
X2568567Y1971533D1*
X2581050Y1971520D1*
X2874480Y2264933D1*
Y4488933D1*
X2875957Y4509963D1*
X2881013Y4532720D1*
X2889547Y4554410D1*
X2901347Y4574513D1*
X2916127Y4592537D1*
X2950647Y4627100D1*
X3182553Y4859030D1*
X3181980Y4869980D1*
X3183200Y4893290D1*
X3186850Y4916347D1*
X3192890Y4938897D1*
X3201253Y4960690D1*
X3211850Y4981490D1*
X3221793Y4996807D1*
X3211870Y5012470D1*
X3201270Y5033270D1*
X3192903Y5055063D1*
X3186857Y5077610D1*
X3183203Y5100667D1*
X3181980Y5123980D1*
X3183200Y5147290D1*
X3186850Y5170347D1*
X3192890Y5192897D1*
X3201253Y5214690D1*
X3211850Y5235490D1*
X3224560Y5255070D1*
X3239250Y5273213D1*
X3255753Y5289723D1*
X3273893Y5304413D1*
X3293470Y5317130D1*
X3314270Y5327730D1*
X3336063Y5336097D1*
X3358610Y5342143D1*
X3381667Y5345797D1*
X3404980Y5347020D1*
X3428290Y5345800D1*
X3451347Y5342150D1*
X3473897Y5336110D1*
X3495690Y5327747D1*
X3499977Y5325563D1*
X3416283Y5409263D1*
X3405020Y5408980D1*
X3381710Y5410200D1*
X3358653Y5413850D1*
X3336103Y5419890D1*
X3314310Y5428253D1*
X3293510Y5438850D1*
X3273930Y5451560D1*
X3255787Y5466250D1*
X3239277Y5482753D1*
X3224587Y5500893D1*
X3211870Y5520470D1*
X3201270Y5541270D1*
X3192903Y5563063D1*
X3186857Y5585610D1*
X3183203Y5608667D1*
X3181980Y5631980D1*
X3183200Y5655290D1*
X3186850Y5678347D1*
X3192890Y5700897D1*
X3201253Y5722690D1*
X3208280Y5736483D1*
X2577923Y5736480D1*
X2367727Y5526273D1*
X2350010Y5511127D1*
X2330153Y5498917D1*
X2308640Y5489940D1*
X2285997Y5484417D1*
X2262743Y5482483D1*
X2241967Y5482480D1*
X2494677Y5229777D1*
X2508493Y5213873D1*
X4061213Y2435667D2*
X3932130Y2306537D1*
X3917347Y2288513D1*
X3905547Y2268413D1*
X3897013Y2246720D1*
X3891957Y2223943D1*
X3890480Y2202947D1*
X3890463Y1756917D1*
X3660577Y1527020D1*
X2533387Y1527010D1*
X2518693Y1540140D1*
X2511710Y1545480D1*
X2643767D1*
X2666997Y1547417D1*
X2689640Y1552940D1*
X2711153Y1561917D1*
X2731010Y1574127D1*
X2748727Y1589273D1*
X3187323Y2027870D1*
X3192903Y2007063D1*
X3201270Y1985270D1*
X3211870Y1964470D1*
X3224587Y1944893D1*
X3239277Y1926753D1*
X3255787Y1910250D1*
X3273930Y1895560D1*
X3293510Y1882850D1*
X3314310Y1872253D1*
X3336103Y1863890D1*
X3358653Y1857850D1*
X3381710Y1854200D1*
X3405020Y1852980D1*
X3428333Y1854203D1*
X3451390Y1857857D1*
X3473937Y1863903D1*
X3495730Y1872270D1*
X3516530Y1882870D1*
X3536107Y1895587D1*
X3554247Y1910277D1*
X3570750Y1926787D1*
X3585440Y1944930D1*
X3598150Y1964510D1*
X3608747Y1985310D1*
X3617110Y2007103D1*
X3623150Y2029653D1*
X3626800Y2052710D1*
X3628020Y2076020D1*
X3626797Y2099333D1*
X3623143Y2122390D1*
X3617097Y2144937D1*
X3608730Y2166730D1*
X3598130Y2187530D1*
X3588210Y2202803D1*
X3588207Y2203193D1*
X3598150Y2218510D1*
X3608747Y2239310D1*
X3617110Y2261103D1*
X3623150Y2283653D1*
X3626800Y2306710D1*
X3628020Y2330020D1*
X3626797Y2353333D1*
X3623143Y2376390D1*
X3617097Y2398937D1*
X3608730Y2420730D1*
X3598130Y2441530D1*
X3588210Y2456803D1*
X3588207Y2457193D1*
X3598150Y2472510D1*
X3608747Y2493310D1*
X3617110Y2515103D1*
X3623150Y2537653D1*
X3626800Y2560710D1*
X3628020Y2584020D1*
X3626797Y2607333D1*
X3623143Y2630390D1*
X3617097Y2652937D1*
X3608730Y2674730D1*
X3598130Y2695530D1*
X3588210Y2710803D1*
X3588207Y2711193D1*
X3598150Y2726510D1*
X3608747Y2747310D1*
X3617110Y2769103D1*
X3623150Y2791653D1*
X3626800Y2814710D1*
X3628020Y2838020D1*
X3626797Y2861333D1*
X3623143Y2884390D1*
X3617097Y2906937D1*
X3608730Y2928730D1*
X3598130Y2949530D1*
X3588210Y2964803D1*
X3588207Y2965193D1*
X3598150Y2980510D1*
X3608747Y3001310D1*
X3617110Y3023103D1*
X3623150Y3045653D1*
X3626800Y3068710D1*
X3628020Y3092020D1*
X3626797Y3115333D1*
X3623143Y3138390D1*
X3617097Y3160937D1*
X3608730Y3182730D1*
X3598130Y3203530D1*
X3588210Y3218803D1*
X3588207Y3219193D1*
X3598150Y3234510D1*
X3608747Y3255310D1*
X3617110Y3277103D1*
X3623150Y3299653D1*
X3626800Y3322710D1*
X3628020Y3346020D1*
X3626797Y3369333D1*
X3623143Y3392390D1*
X3617097Y3414937D1*
X3608730Y3436730D1*
X3598130Y3457530D1*
X3588210Y3472803D1*
X3588207Y3473193D1*
X3598150Y3488510D1*
X3608747Y3509310D1*
X3617110Y3531103D1*
X3623150Y3553653D1*
X3626800Y3576710D1*
X3628020Y3600020D1*
X3626797Y3623333D1*
X3623143Y3646390D1*
X3617097Y3668937D1*
X3608730Y3690730D1*
X3598130Y3711530D1*
X3588210Y3726803D1*
X3588207Y3727193D1*
X3598150Y3742510D1*
X3606377Y3758657D1*
X3680273Y3684773D1*
X3682463Y3682630D1*
X3700487Y3667847D1*
X3720587Y3656047D1*
X3742280Y3647513D1*
X3765057Y3642457D1*
X3786070Y3640980D1*
X3914563Y3640983D1*
X3953980Y3601580D1*
Y2964233D1*
X3955917Y2941003D1*
X3961440Y2918360D1*
X3970417Y2896847D1*
X3982627Y2876990D1*
X3997773Y2859273D1*
X4104657Y2752390D1*
X4106583Y2747737D1*
X4117867Y2727320D1*
X4131367Y2708297D1*
X4146913Y2690903D1*
X4164307Y2675360D1*
X4183333Y2661860D1*
X4203750Y2650577D1*
X4225300Y2641650D1*
X4247717Y2635193D1*
X4271480Y2631187D1*
X4271500Y2536757D1*
X4270703Y2536710D1*
X4247703Y2532803D1*
X4225290Y2526343D1*
X4203737Y2517417D1*
X4183320Y2506133D1*
X4164297Y2492633D1*
X4148313Y2478347D1*
X4140740Y2477197D1*
X4118180Y2471327D1*
X4096810Y2462020D1*
X4077127Y2449493D1*
X4061213Y2435667D1*
D16*
X1246000Y3854000D3*
D17*
Y4108000D3*
D16*
X4294000Y1822000D3*
D17*
Y2076000D3*
Y2330000D3*
Y2584000D3*
Y2838000D3*
Y3092000D3*
D16*
X1373000Y5378000D3*
D17*
Y5124000D3*
D18*
X1245988Y3219000D3*
D19*
X1246012Y1949000D3*
D18*
X3913000Y5886000D3*
D19*
Y4616000D3*
D18*
Y4362000D3*
D19*
Y3092000D3*
D21*
X1881000Y5632000D3*
D22*
Y5378000D3*
Y5124000D3*
Y4870000D3*
Y4616000D3*
X3405000Y2076000D3*
Y2330000D3*
Y2584000D3*
Y4616000D3*
Y4870000D3*
Y5632000D3*
X1881000Y4362000D3*
Y4108000D3*
Y3854000D3*
Y3600000D3*
Y3346000D3*
Y3092000D3*
Y2838000D3*
Y2584000D3*
Y2330000D3*
Y2076000D3*
X3405000Y2838000D3*
Y3092000D3*
Y3346000D3*
Y3600000D3*
Y3854000D3*
Y4108000D3*
Y4362000D3*
Y5124000D3*
Y5378000D3*
M02*
