M48
METRIC,0000.00
T01C0.6
T02C0.9
T03C0.965
T04C3.1
%
T01
X+002389Y+002076
X+002389Y+001377
T02
X+001246Y+003854
X+001246Y+004108
X+001881Y+004108
X+001881Y+003854
X+001881Y+003600
X+001881Y+003346
X+001881Y+003092
X+001881Y+002838
X+001881Y+002584
X+001881Y+002330
X+001881Y+002076
X+003405Y+002076
X+003405Y+002330
X+003405Y+002584
X+003405Y+002838
X+003405Y+003092
X+003405Y+003346
X+003405Y+003600
X+003405Y+003854
X+003405Y+004108
X+003405Y+004362
X+003405Y+004616
X+003405Y+004870
X+003405Y+005124
X+003405Y+005378
X+003405Y+005632
X+001881Y+005632
X+001881Y+005378
X+001881Y+005124
X+001881Y+004870
X+001881Y+004616
X+001881Y+004362
X+001373Y+005124
X+001373Y+005378
X+004294Y+003092
X+004294Y+002838
X+004294Y+002584
X+004294Y+002330
X+004294Y+002076
X+004294Y+001822
T03
X+001246Y+003219
X+001246Y+001949
X+003913Y+003092
X+003913Y+004362
X+003913Y+004616
X+003913Y+005886
T04
X+001246Y+006203
X+004421Y+006203
X+004294Y+001314
X+001373Y+001314
T00
M30
